# Blender v2.79 (sub 0) OBJ File: 'antnest.blend'
# www.blender.org
mtllib antnest.mtl
o Icosphere
v 0.052418 -0.125609 -0.118443
v 2.193064 -0.082013 2.228641
v -0.865720 -0.058746 2.514955
v -2.521643 -0.036984 0.276756
v -1.086150 -0.026179 -2.602481
v 2.884836 -0.120030 -2.031447
v 0.620583 2.497462 1.168067
v -1.012315 2.527991 0.846506
v -0.890610 2.535216 -0.712543
v 0.462760 2.706648 -1.331173
v 1.349004 2.550151 0.040251
v 0.092853 3.161662 -0.105610
v -0.377019 -0.112506 1.120539
v 1.107800 -0.088059 0.672517
v 0.707229 -0.123733 2.604006
v 3.336689 -0.073046 0.078996
v 1.165103 -0.129618 -0.941840
v -1.235227 -0.108215 -0.047452
v -2.117093 -0.041806 1.582095
v -0.420104 -0.135073 -1.356906
v -2.127208 -0.015051 -1.623879
v 0.891540 -0.250335 -3.204737
v 1.620988 1.625536 0.551587
v 2.352204 1.590413 -0.805983
v 0.023760 1.545704 1.853836
v 1.471618 1.507007 1.511496
v -1.912469 1.475915 0.568125
v -1.124632 1.527560 1.813088
v -1.102451 1.546755 -1.870769
v -1.826617 1.502156 -0.536820
v 1.191229 1.628170 -1.618471
v 0.233485 1.586246 -2.064468
v 1.061140 2.613473 0.665065
v -0.233009 2.660949 1.170714
v -1.099813 2.651647 0.085023
v -0.285097 2.820723 -1.309637
v 1.188387 2.781473 -0.801087
v 0.435010 3.436664 0.686873
v 1.086228 3.379607 -0.062447
v -0.673844 3.454864 0.443042
v -0.585228 3.449694 -0.476409
v 0.363158 3.489889 -1.000230
vt 0.206259 0.299302
vt 0.250933 0.178371
vt 0.309981 0.316429
vt 0.314013 0.065551
vt 0.161185 0.000000
vt 0.232660 0.425604
vt 0.117187 0.371648
vt 0.123925 0.205852
vt 0.448182 0.332145
vt 0.507326 0.142630
vt 0.612929 0.331725
vt 0.081274 0.926924
vt 0.000000 0.836175
vt 0.122116 0.736506
vt 0.289848 1.000000
vt 0.194936 0.991364
vt 0.286177 0.845766
vt 0.744738 0.485446
vt 0.851537 0.474608
vt 0.783684 0.644865
vt 0.744738 0.896967
vt 0.571475 0.896967
vt 0.618639 0.704956
vt 0.565837 0.408945
vt 0.178226 0.808269
vt 1.000000 0.516591
vt 0.985627 0.682544
vt 0.904434 0.653421
vt 0.426798 0.876579
vt 0.436886 0.701659
vt 0.535814 0.720247
vt 0.724789 0.681594
vt 0.659610 0.466428
vt 0.681306 0.407868
vt 0.744313 0.474608
vt 0.256721 0.710048
vt 0.204803 0.655381
vt 0.289848 0.610597
vt 0.849266 0.776246
vt 0.912104 0.803009
vt 0.847097 0.875874
vt 0.565894 0.588066
vt 0.508430 0.569569
vt 0.563184 0.501637
vt 0.699555 0.341855
vt 0.754191 0.295035
vt 0.761970 0.379174
vt 0.345529 0.546638
vt 0.401745 0.641657
vt 0.337650 0.641657
vt 0.638302 0.474608
vt 0.632469 0.563631
vt 0.305942 0.546638
vt 0.337649 0.629096
vt 0.289848 0.644763
vt 0.775285 0.901754
vt 0.782732 0.807091
vt 0.337650 0.718875
vt 0.915060 0.901754
vt 0.963599 0.819910
vt 0.399812 0.727283
vt 0.337650 0.643753
vt 0.399812 0.641657
vt 0.222824 0.546638
vt 0.160093 0.615701
vt 0.386458 0.727283
vt 0.386458 0.823907
vt 0.337650 0.780670
vt 0.657274 0.186211
vt 0.072487 0.646117
vt 0.426798 0.474608
vt 0.591824 0.000000
vt 0.000000 0.277284
vt 0.010963 0.057673
vt 0.030679 0.463480
vt 0.123974 0.546638
vt 0.278811 0.546638
vt 0.374209 0.479642
vt 0.426798 0.336285
vt 0.408282 0.178329
vn 0.0219 -0.9996 0.0182
vn 0.0066 -1.0000 -0.0007
vn -0.0132 -0.9999 0.0060
vn -0.0128 -0.9998 0.0125
vn 0.0016 -1.0000 0.0070
vn 0.7022 0.6046 0.3761
vn -0.0355 0.3975 0.9169
vn -0.9075 0.3110 0.2824
vn -0.6481 0.3157 -0.6930
vn 0.3946 0.5552 -0.7321
vn 0.8580 0.4763 0.1923
vn -0.0388 0.3990 0.9161
vn -0.9216 0.3831 -0.0625
vn -0.1425 0.4163 -0.8980
vn 0.4691 0.6062 -0.6422
vn 0.6167 0.4520 0.6444
vn -0.4051 0.4852 0.7749
vn -0.8843 0.3691 -0.2858
vn 0.0334 0.3926 -0.9191
vn 0.9519 0.2889 -0.1023
vn -0.2174 0.9358 0.2776
vn 0.6466 0.6341 -0.4240
vn 0.5172 0.3881 -0.7628
vn 0.1743 0.9062 0.3852
vn -0.3820 0.6662 -0.6405
vn -0.7333 0.3889 -0.5577
vn 0.3763 0.9260 0.0311
vn -0.8638 0.4964 -0.0860
vn -0.8999 0.4021 0.1687
vn 0.0950 0.9271 -0.3627
vn -0.1592 0.6176 0.7702
vn 0.0924 0.4684 0.8786
vn -0.1977 0.9494 -0.2441
vn 0.6731 0.4975 0.5471
vn 0.8719 0.3219 0.3691
vn 0.7143 0.6977 0.0555
vn 0.5077 0.4990 -0.7023
vn 0.4723 0.5104 -0.7186
vn 0.0579 0.5384 -0.8407
vn -0.1401 0.4730 -0.8698
vn -0.6821 0.6131 -0.3985
vn -0.7343 0.6172 -0.2827
vn -0.8313 0.5534 -0.0514
vn -0.7703 0.6095 0.1875
vn -0.3809 0.6642 0.6432
vn -0.0385 0.5155 0.8560
vn 0.1054 0.5370 0.8370
vn 0.5025 0.6351 0.5866
vn 0.8631 0.4671 0.1920
vn 0.8343 0.4337 0.3404
vn 0.3585 0.4588 -0.8130
vn 0.3229 0.5800 -0.7479
vn -0.2105 0.4601 -0.8625
vn -0.7188 0.5882 -0.3705
vn -0.7898 0.4528 -0.4136
vn -0.9286 0.3194 -0.1890
vn -0.7354 0.5117 0.4442
vn -0.7746 0.4202 0.4727
vn -0.5765 0.2501 0.7779
vn 0.2141 0.4791 0.8513
vn 0.2148 0.4721 0.8550
vn 0.2025 0.4778 0.8548
vn 0.7869 0.4593 0.4120
vn 0.7041 0.6101 0.3635
vn 0.8861 0.4185 -0.1990
vn 0.0365 -0.9981 0.0488
vn -0.0109 -0.9985 0.0546
vn -0.1195 -0.9926 -0.0229
vn -0.0616 -0.9966 -0.0542
vn -0.0668 -0.9975 -0.0211
vn -0.0614 -0.9978 -0.0242
vn -0.0521 -0.9986 0.0125
vn -0.0348 -0.9992 0.0219
vn -0.0335 -0.9991 0.0268
vn 0.0173 -0.9997 0.0185
vn 0.0137 -0.9996 0.0262
vn 0.0159 -0.9995 0.0263
vn -0.0426 -0.9988 0.0236
vn 0.0116 -0.9998 -0.0161
vn 0.0247 -0.9996 -0.0133
usemtl Material.001
s off
f 1/1/1 14/2/1 13/3/1
f 2/4/2 14/2/2 16/5/2
f 1/1/3 13/3/3 18/6/3
f 1/1/4 18/6/4 20/7/4
f 1/1/5 20/7/5 17/8/5
f 2/9/6 16/10/6 23/11/6
f 3/12/7 15/13/7 25/14/7
f 4/15/8 19/16/8 27/17/8
f 5/18/9 21/19/9 29/20/9
f 6/21/10 22/22/10 31/23/10
f 2/9/11 23/11/11 26/24/11
f 3/12/12 25/14/12 28/25/12
f 4/26/13 27/27/13 30/28/13
f 5/29/14 29/30/14 32/31/14
f 6/21/15 31/23/15 24/32/15
f 7/33/16 33/34/16 38/35/16
f 8/36/17 34/37/17 40/38/17
f 9/39/18 35/40/18 41/41/18
f 10/42/19 36/43/19 42/44/19
f 11/45/20 37/46/20 39/47/20
f 39/48/21 42/49/21 12/50/21
f 39/51/22 37/52/22 42/44/22
f 37/52/23 10/42/23 42/44/23
f 42/53/24 41/54/24 12/55/24
f 42/56/25 36/57/25 41/41/25
f 36/57/26 9/39/26 41/41/26
f 41/54/27 40/58/27 12/55/27
f 41/41/28 35/40/28 40/59/28
f 35/40/29 8/60/29 40/59/29
f 40/61/30 38/62/30 12/63/30
f 40/38/31 34/37/31 38/64/31
f 34/37/32 7/65/32 38/64/32
f 38/66/33 39/67/33 12/68/33
f 38/35/34 33/34/34 39/47/34
f 33/34/35 11/45/35 39/47/35
f 24/69/36 37/46/36 11/45/36
f 24/32/37 31/23/37 37/52/37
f 31/23/38 10/42/38 37/52/38
f 32/31/39 36/43/39 10/42/39
f 32/31/40 29/30/40 36/43/40
f 29/20/41 9/39/41 36/57/41
f 30/28/42 35/40/42 9/39/42
f 30/28/43 27/27/43 35/40/43
f 27/27/44 8/60/44 35/40/44
f 28/25/45 34/37/45 8/36/45
f 28/25/46 25/14/46 34/37/46
f 25/14/47 7/65/47 34/37/47
f 26/24/48 33/34/48 7/33/48
f 26/24/49 23/11/49 33/34/49
f 23/11/50 11/45/50 33/34/50
f 31/23/51 32/31/51 10/42/51
f 31/23/52 22/22/52 32/31/52
f 22/22/53 5/29/53 32/31/53
f 29/20/54 30/28/54 9/39/54
f 29/20/55 21/19/55 30/28/55
f 21/19/56 4/26/56 30/28/56
f 27/17/57 28/25/57 8/36/57
f 27/17/58 19/16/58 28/25/58
f 19/16/59 3/12/59 28/25/59
f 25/14/60 26/70/60 7/65/60
f 25/14/61 15/13/61 26/70/61
f 15/71/62 2/9/62 26/24/62
f 23/11/63 24/69/63 11/45/63
f 23/11/64 16/10/64 24/69/64
f 16/10/65 6/72/65 24/69/65
f 17/8/66 22/73/66 6/74/66
f 17/8/67 20/7/67 22/73/67
f 20/7/68 5/75/68 22/73/68
f 20/7/69 21/76/69 5/75/69
f 20/7/70 18/6/70 21/76/70
f 18/6/71 4/77/71 21/76/71
f 18/6/72 19/78/72 4/77/72
f 18/6/73 13/3/73 19/78/73
f 13/3/74 3/79/74 19/78/74
f 16/5/75 17/8/75 6/74/75
f 16/5/76 14/2/76 17/8/76
f 14/2/77 1/1/77 17/8/77
f 13/3/78 15/80/78 3/79/78
f 13/3/79 14/2/79 15/80/79
f 14/2/80 2/4/80 15/80/80
