# Blender v2.80 (sub 75) OBJ File: ''
# www.blender.org
mtllib grass.mtl
o Plane
v -1.546787 -0.004532 -0.000000
v 1.546787 -0.004532 -0.000000
v -2.153781 2.944847 0.000000
v 2.153781 2.944847 0.000000
v -0.000000 -0.004532 1.546787
v -0.000000 -0.004532 -1.546787
v 0.000000 2.944847 2.153780
v 0.000000 2.944847 -2.153781
vt 0.153576 0.003949
vt 0.846818 0.003949
vt 0.941811 0.793615
vt 0.108828 0.793615
vt 0.158032 0.001689
vt 0.855834 0.001689
vt 0.926614 0.794235
vt 0.088151 0.794235
vn 0.0000 -0.0000 1.0000
vn 1.0000 -0.0000 -0.0000
usemtl Material.001
s off
f 1/1/1 2/2/1 4/3/1 3/4/1
f 5/5/2 6/6/2 8/7/2 7/8/2
