# Blender v2.80 (sub 75) OBJ File: ''
# www.blender.org
mtllib test.mtl
o Icosphere
v -0.276385 -0.011287 0.468792
v 0.723600 -0.011287 0.525720
v -0.276385 -0.011287 0.850640
v -0.894425 -0.011287 0.000000
v -0.276385 -0.011287 -0.850640
v 0.723600 -0.011287 -0.525720
v 0.276385 0.883143 0.850640
v -0.723600 0.883143 0.525720
v -0.723600 0.883143 -0.525720
v 0.276385 0.883143 -0.850640
v 0.894425 0.883143 0.000000
v 0.723600 -0.011287 0.143872
v 0.276385 0.883143 0.468792
v -0.723600 0.883143 0.143872
v -0.734540 0.032454 0.189540
v -0.116500 0.032454 -0.661100
v -0.563715 0.926884 -0.336180
v 0.436270 0.926884 -0.661100
v 0.524377 0.038645 -0.169387
v 0.077162 0.933075 -0.494307
v 0.695202 0.933075 0.356333
v 0.252430 0.145236 -0.563973
v -0.274173 0.134978 -0.173342
v 0.274173 0.134978 0.173342
v -0.274173 0.783725 -0.173342
v 0.274173 0.783725 0.173342
v 0.129545 0.134978 -0.259894
v 0.051636 0.779895 -0.132212
vt 0.167384 0.018202
vt 0.885155 0.008018
vt 0.884467 0.850470
vt 0.171506 -0.038621
vt 0.888999 0.728937
vt 0.086605 0.673089
vt 0.152005 -0.006111
vt 0.889816 -0.010429
vt 0.893854 0.761615
vt -0.226994 0.004649
vt 1.138392 -0.004811
vt 0.452185 0.924585
vt 0.133493 0.827468
vt 0.964187 0.045936
vt 0.185610 0.746001
vt 0.222642 -0.041982
vt 0.877235 0.763906
vt 0.172010 0.716330
vt 0.110217 -0.008137
vt 0.963446 0.730359
vt 0.098498 0.745182
vt 0.880960 0.009502
vt 0.877663 0.031458
vt 0.523655 -0.025959
vt 0.969610 0.069416
vt 0.851444 0.706299
vt 0.481051 0.633688
vt 0.113125 0.011765
vt 0.154057 0.658224
vn 0.9822 -0.1876 0.0000
vn -0.3035 0.1876 -0.9342
vn -0.7946 -0.1876 0.5774
vn 0.3035 -0.1876 -0.9342
vn 0.7946 0.1876 0.5774
vn -0.7946 -0.1876 -0.5774
vn -0.9822 0.1876 0.0000
vn 0.7946 0.1876 -0.5774
vn -0.3035 0.1876 0.9342
vn 0.3035 -0.1876 0.9342
vn 0.8293 0.2295 -0.5095
vn -0.8910 -0.0974 0.4433
vn 0.0614 -0.0944 0.9936
usemtl Material.001
s off
f 2/1/1 6/2/1 11/3/1
f 16/4/2 17/5/2 18/6/2
f 4/7/3 3/8/3 8/9/3
f 6/10/4 5/11/4 10/12/4
f 2/1/5 11/3/5 7/13/5
f 16/4/6 15/14/6 17/5/6
f 4/7/7 8/9/7 9/15/7
f 19/16/8 20/17/8 21/18/8
f 1/19/9 13/20/9 14/21/9
f 1/19/10 12/22/10 13/20/10
f 19/16/11 22/23/11 20/17/11
f 27/24/12 24/25/12 26/26/12 28/27/12
f 23/28/13 27/24/13 28/27/13 25/29/13
