# Blender v2.79 (sub 0) OBJ File: ''
# www.blender.org
mtllib cube.mtl
o Cube
v -1.000000 0.406800 1.000000
v -1.000000 2.406800 1.000000
v -1.000000 0.406800 -1.000000
v -1.000000 2.406800 -1.000000
v 1.000000 0.406800 1.000000
v 1.000000 2.406800 1.000000
v 1.000000 0.406800 -1.000000
v 1.000000 2.406800 -1.000000
vt 0.000161 0.666720
vt 0.333280 0.666720
vt 0.333280 0.999839
vt 0.000161 0.999839
vt 0.666399 0.000161
vt 0.666399 0.333280
vt 0.333280 0.333280
vt 0.333280 0.000161
vt 0.000161 0.333280
vt 0.000161 0.000161
vt 0.000161 0.333601
vt 0.333280 0.333601
vt 0.666720 0.666720
vt 0.333601 0.666720
vt 0.333601 0.333601
vt 0.666720 0.333601
vt 0.999839 0.333280
vt 0.666720 0.333280
vt 0.666720 0.000161
vt 0.999839 0.000161
vn -1.0000 0.0000 0.0000
vn 0.0000 0.0000 -1.0000
vn 1.0000 0.0000 0.0000
vn 0.0000 0.0000 1.0000
vn 0.0000 -1.0000 0.0000
vn 0.0000 1.0000 0.0000
usemtl Material
s off
f 1/1/1 2/2/1 4/3/1 3/4/1
f 3/5/2 4/6/2 8/7/2 7/8/2
f 7/8/3 8/7/3 6/9/3 5/10/3
f 5/11/4 6/12/4 2/2/4 1/1/4
f 3/13/5 7/14/5 5/15/5 1/16/5
f 8/17/6 4/18/6 2/19/6 6/20/6
